<?xml version="1.0" encoding="UTF-8" standalone="no"?>
<!-- Created with Inkscape (http://www.inkscape.org/) -->

<svg
   width="24"
   height="24"
   viewBox="0 0 6.35 6.3500001"
   version="1.1"
   id="svg1"
   xml:space="preserve"
   sodipodi:docname="all.svg"
   inkscape:version="1.4.4 (dcaf3e7d9e, 2026-05-05)"
   xmlns:inkscape="http://www.inkscape.org/namespaces/inkscape"
   xmlns:sodipodi="http://sodipodi.sourceforge.net/DTD/sodipodi-0.dtd"
   xmlns="http://www.w3.org/2000/svg"
   xmlns:svg="http://www.w3.org/2000/svg"><sodipodi:namedview
     id="namedview1"
     pagecolor="#505050"
     bordercolor="#eeeeee"
     borderopacity="1"
     inkscape:showpageshadow="0"
     inkscape:pageopacity="0"
     inkscape:pagecheckerboard="0"
     inkscape:deskcolor="#505050"
     showgrid="false"
     showguides="true"
     inkscape:zoom="5.6568543"
     inkscape:cx="83.085047"
     inkscape:cy="7.1594561"
     inkscape:window-width="2560"
     inkscape:window-height="1366"
     inkscape:window-x="0"
     inkscape:window-y="0"
     inkscape:window-maximized="1"
     inkscape:current-layer="svg1"><inkscape:grid
       type="modular"
       id="grid9"
       units="px"
       originx="-0.5291667"
       originy="-0.5291667"
       spacingx="6.3500001"
       spacingy="6.3500001"
       empcolor="#ffffff"
       empopacity="0.30196078"
       color="#ffffff"
       opacity="0"
       empspacing="0"
       marginx="0"
       marginy="0"
       gapx="1.0583333"
       gapy="1.0583333"
       enabled="true"
       visible="false" /><inkscape:grid
       type="modular"
       id="grid10"
       units="px"
       originx="-0.5291667"
       originy="-0.5291667"
       spacingx="5.8208334"
       spacingy="5.8208334"
       empcolor="#00cb19"
       empopacity="0.65882353"
       color="#0099e5"
       opacity="0.14901961"
       empspacing="0"
       marginx="0"
       marginy="0"
       gapx="1.5875"
       gapy="1.5875"
       enabled="true"
       visible="false" /><inkscape:page
       x="0"
       y="0"
       width="6.3499999"
       height="6.3499999"
       id="page2"
       margin="0"
       bleed="0" /></sodipodi:namedview><defs
     id="defs1" /><g
     id="layer1"
     transform="matrix(1.0402559,0,0,1.0402559,-0.12781253,-0.12781253)"><path
       fill="#ffffff"
       d="m 5.9727857,3.175 c 0,1.5450692 -1.2526983,2.7977889 -2.7977889,2.7977889 -1.5450692,0 -2.79778247,-1.2527197 -2.79778247,-2.7977889 0,-1.5450692 1.25271327,-2.79778888 2.79778247,-2.79778888 1.5450906,0 2.7977889,1.25271968 2.7977889,2.79778888 M 3.1749968,5.4705865 c 1.267873,0 2.2955864,-1.0277242 2.2955864,-2.2955865 0,-1.2678623 -1.0277134,-2.29558648 -2.2955864,-2.29558648 -1.2678516,0 -2.29557578,1.02772418 -2.29557578,2.29558648 0,1.2678623 1.02772418,2.2955865 2.29557578,2.2955865 M 5.0401929,3.175 a 1.8651911,1.8651911 0 1 1 -3.7303815,0 1.8651911,1.8651911 0 0 1 3.7303815,0 M 3.1749968,4.6816072 a 1.5066102,1.5066102 0 1 0 0,-3.0132144 1.5066102,1.5066102 0 0 0 0,3.0132144 m 0,-0.430626 a 1.0759821,1.0759821 0 1 0 0,-2.1519624 1.0759821,1.0759821 0 0 0 0,2.1519624 M 4.0357989,3.175 a 0.86079136,0.86079136 0 1 1 -1.7215827,0 0.86079136,0.86079136 0 0 1 1.7215827,0"
       id="path1-61"
       style="stroke-width:0.233149" /></g><g
     id="g2"
     transform="matrix(0,0,0,0,2.116666,3.1749999)"><path
       d="M 0,0 H 128 V 128 H 0 Z"
       fill="none"
       id="path1-3" /><path
       fill="#ffffff"
       d="m 52.203,9.61 c -5.3,1.18 -10.543,2.816 -15.457,5.292 0.113,4.34 0.395,8.496 0.961,12.72 -1.906,1.222 -3.914,2.273 -5.695,3.702 -1.813,1.395 -3.66,2.727 -5.301,4.36 A 102,102 0 0 0 16.395,29.68 C 12.543,33.824 8.94,38.297 6,43.305 c 2.313,3.629 4.793,7.273 7.086,10.117 v 30.723 q 0.087,0 0.168,0.007 L 32.09,85.97 a 2.03,2.03 0 0 1 1.828,1.875 l 0.582,8.316 16.426,1.172 1.133,-7.672 a 2.03,2.03 0 0 1 2.007,-1.734 h 19.868 a 2.03,2.03 0 0 1 2.007,1.734 l 1.133,7.672 16.43,-1.172 0.578,-8.316 A 2.03,2.03 0 0 1 95.91,85.97 l 18.828,-1.817 q 0.082,-0.007 0.168,-0.007 V 81.69 h 0.008 V 53.42 c 2.652,-3.335 5.16,-7.019 7.086,-10.116 -2.941,-5.008 -6.543,-9.48 -10.395,-13.625 a 102,102 0 0 0 -10.316,6.004 c -1.64,-1.633 -3.488,-2.965 -5.3,-4.36 -1.782,-1.43 -3.79,-2.48 -5.696,-3.703 0.566,-4.223 0.848,-8.379 0.96,-12.719 -4.913,-2.476 -10.155,-4.113 -15.456,-5.293 -2.117,3.559 -4.055,7.41 -5.738,11.176 -2,-0.332 -4.008,-0.457 -6.02,-0.48 V 20.3 L 64,20.304 C 63.984,20.306 63.977,20.3 63.96,20.3 v 0.004 c -2.01,0.023 -4.019,0.148 -6.019,0.48 -1.683,-3.765 -3.62,-7.617 -5.738,-11.176 z M 37.301,54.55 c 6.27,0 11.351,5.079 11.351,11.345 0,6.27 -5.082,11.351 -11.351,11.351 -6.266,0 -11.348,-5.082 -11.348,-11.351 0,-6.266 5.082,-11.344 11.348,-11.344 z m 53.398,0 c 6.266,0 11.348,5.079 11.348,11.345 0,6.27 -5.082,11.351 -11.348,11.351 -6.27,0 -11.351,-5.082 -11.351,-11.351 0,-6.266 5.082,-11.344 11.351,-11.344 z M 64,61.189 c 2.016,0 3.656,1.488 3.656,3.32 v 10.449 c 0,1.832 -1.64,3.32 -3.656,3.32 -2.02,0 -3.652,-1.488 -3.652,-3.32 v -10.45 c 0,-1.831 1.632,-3.32 3.652,-3.32 z m 0,0"
       id="path2-5" /><path
       fill="#ffffff"
       d="m 98.008,89.84 -0.582,8.36 a 2.024,2.024 0 0 1 -1.88,1.878 l -20.062,1.434 c -0.046,0.004 -0.097,0.004 -0.144,0.004 -0.996,0 -1.86,-0.73 -2.004,-1.73 L 72.184,91.98 H 55.816 l -1.152,7.805 a 2.026,2.026 0 0 1 -2.148,1.727 l -20.063,-1.434 a 2.024,2.024 0 0 1 -1.879,-1.879 l -0.582,-8.36 -16.937,-1.632 c 0.008,1.82 0.03,3.816 0.03,4.211 0,17.887 22.692,26.484 50.88,26.582 h 0.07 c 28.188,-0.098 50.871,-8.695 50.871,-26.582 0,-0.402 0.024,-2.39 0.031,-4.211 z M 45.922,66.566 a 7.53,7.53 0 0 1 -7.535,7.532 7.534,7.534 0 0 1 -7.535,-7.532 7.534,7.534 0 0 1 7.535,-7.53 7.53,7.53 0 0 1 7.535,7.53 m 36.156,0 a 7.53,7.53 0 0 0 7.531,7.532 7.5315,7.5315 0 1 0 0,-15.063 7.53,7.53 0 0 0 -7.53,7.531"
       id="path3" /></g></svg>
